<?xml version="1.0" encoding="utf-8" standalone="no"?>
<!DOCTYPE svg PUBLIC "-//W3C//DTD SVG 1.1//EN"
  "http://www.w3.org/Graphics/SVG/1.1/DTD/svg11.dtd">
<svg xmlns:xlink="http://www.w3.org/1999/xlink" width="1008pt" height="504pt" viewBox="0 0 1008 504" xmlns="http://www.w3.org/2000/svg" version="1.1">
 <metadata>
  <rdf:RDF xmlns:dc="http://purl.org/dc/elements/1.1/" xmlns:cc="http://creativecommons.org/ns#" xmlns:rdf="http://www.w3.org/1999/02/22-rdf-syntax-ns#">
   <cc:Work>
    <dc:type rdf:resource="http://purl.org/dc/dcmitype/StillImage"/>
    <dc:date>2026-05-27T05:35:02.946813</dc:date>
    <dc:format>image/svg+xml</dc:format>
    <dc:creator>
     <cc:Agent>
      <dc:title>Matplotlib v3.10.9, https://matplotlib.org/</dc:title>
     </cc:Agent>
    </dc:creator>
   </cc:Work>
  </rdf:RDF>
 </metadata>
 <defs>
  <style type="text/css">*{stroke-linejoin: round; stroke-linecap: butt}</style>
 </defs>
 <g id="figure_1">
  <g id="patch_1">
   <path d="M 0 504 
L 1008 504 
L 1008 0 
L 0 0 
z
" style="fill: #ffffff"/>
  </g>
  <g id="axes_1">
   <g id="patch_2">
    <path d="M 50.87 435.718143 
L 997.2 435.718143 
L 997.2 27.6 
L 50.87 27.6 
z
" style="fill: #ffffff"/>
   </g>
   <g id="matplotlib.axis_1">
    <g id="xtick_1">
     <g id="line2d_1">
      <path d="M 184.482581 435.718143 
L 184.482581 27.6 
" clip-path="url(#p6c222f57c9)" style="fill: none; stroke-dasharray: 2.96,1.28; stroke-dashoffset: 0; stroke: #b0b0b0; stroke-opacity: 0.5; stroke-width: 0.8"/>
     </g>
     <g id="line2d_2">
      <defs>
       <path id="ma11c5c0563" d="M 0 0 
L 0 3.5 
" style="stroke: #000000; stroke-width: 0.8"/>
      </defs>
      <g>
       <use xlink:href="#ma11c5c0563" x="184.482581" y="435.718143" style="stroke: #000000; stroke-width: 0.8"/>
      </g>
     </g>
     <g id="text_1">
      <!-- 2022-07 -->
      <g transform="translate(171.661299 477.63596) rotate(-45) scale(0.1 -0.1)">
       <defs>
        <path id="DejaVuSans-32" d="M 1228 531 
L 3431 531 
L 3431 0 
L 469 0 
L 469 531 
Q 828 903 1448 1529 
Q 2069 2156 2228 2338 
Q 2531 2678 2651 2914 
Q 2772 3150 2772 3378 
Q 2772 3750 2511 3984 
Q 2250 4219 1831 4219 
Q 1534 4219 1204 4116 
Q 875 4013 500 3803 
L 500 4441 
Q 881 4594 1212 4672 
Q 1544 4750 1819 4750 
Q 2544 4750 2975 4387 
Q 3406 4025 3406 3419 
Q 3406 3131 3298 2873 
Q 3191 2616 2906 2266 
Q 2828 2175 2409 1742 
Q 1991 1309 1228 531 
z
" transform="scale(0.015625)"/>
        <path id="DejaVuSans-30" d="M 2034 4250 
Q 1547 4250 1301 3770 
Q 1056 3291 1056 2328 
Q 1056 1369 1301 889 
Q 1547 409 2034 409 
Q 2525 409 2770 889 
Q 3016 1369 3016 2328 
Q 3016 3291 2770 3770 
Q 2525 4250 2034 4250 
z
M 2034 4750 
Q 2819 4750 3233 4129 
Q 3647 3509 3647 2328 
Q 3647 1150 3233 529 
Q 2819 -91 2034 -91 
Q 1250 -91 836 529 
Q 422 1150 422 2328 
Q 422 3509 836 4129 
Q 1250 4750 2034 4750 
z
" transform="scale(0.015625)"/>
        <path id="DejaVuSans-2d" d="M 313 2009 
L 1997 2009 
L 1997 1497 
L 313 1497 
L 313 2009 
z
" transform="scale(0.015625)"/>
        <path id="DejaVuSans-37" d="M 525 4666 
L 3525 4666 
L 3525 4397 
L 1831 0 
L 1172 0 
L 2766 4134 
L 525 4134 
L 525 4666 
z
" transform="scale(0.015625)"/>
       </defs>
       <use xlink:href="#DejaVuSans-32"/>
       <use xlink:href="#DejaVuSans-30" transform="translate(63.623047 0)"/>
       <use xlink:href="#DejaVuSans-32" transform="translate(127.246094 0)"/>
       <use xlink:href="#DejaVuSans-32" transform="translate(190.869141 0)"/>
       <use xlink:href="#DejaVuSans-2d" transform="translate(254.492188 0)"/>
       <use xlink:href="#DejaVuSans-30" transform="translate(290.576172 0)"/>
       <use xlink:href="#DejaVuSans-37" transform="translate(354.199219 0)"/>
      </g>
     </g>
    </g>
    <g id="xtick_2">
     <g id="line2d_3">
      <path d="M 321.297793 435.718143 
L 321.297793 27.6 
" clip-path="url(#p6c222f57c9)" style="fill: none; stroke-dasharray: 2.96,1.28; stroke-dashoffset: 0; stroke: #b0b0b0; stroke-opacity: 0.5; stroke-width: 0.8"/>
     </g>
     <g id="line2d_4">
      <g>
       <use xlink:href="#ma11c5c0563" x="321.297793" y="435.718143" style="stroke: #000000; stroke-width: 0.8"/>
      </g>
     </g>
     <g id="text_2">
      <!-- 2023-01 -->
      <g transform="translate(308.476511 477.63596) rotate(-45) scale(0.1 -0.1)">
       <defs>
        <path id="DejaVuSans-33" d="M 2597 2516 
Q 3050 2419 3304 2112 
Q 3559 1806 3559 1356 
Q 3559 666 3084 287 
Q 2609 -91 1734 -91 
Q 1441 -91 1130 -33 
Q 819 25 488 141 
L 488 750 
Q 750 597 1062 519 
Q 1375 441 1716 441 
Q 2309 441 2620 675 
Q 2931 909 2931 1356 
Q 2931 1769 2642 2001 
Q 2353 2234 1838 2234 
L 1294 2234 
L 1294 2753 
L 1863 2753 
Q 2328 2753 2575 2939 
Q 2822 3125 2822 3475 
Q 2822 3834 2567 4026 
Q 2313 4219 1838 4219 
Q 1578 4219 1281 4162 
Q 984 4106 628 3988 
L 628 4550 
Q 988 4650 1302 4700 
Q 1616 4750 1894 4750 
Q 2613 4750 3031 4423 
Q 3450 4097 3450 3541 
Q 3450 3153 3228 2886 
Q 3006 2619 2597 2516 
z
" transform="scale(0.015625)"/>
        <path id="DejaVuSans-31" d="M 794 531 
L 1825 531 
L 1825 4091 
L 703 3866 
L 703 4441 
L 1819 4666 
L 2450 4666 
L 2450 531 
L 3481 531 
L 3481 0 
L 794 0 
L 794 531 
z
" transform="scale(0.015625)"/>
       </defs>
       <use xlink:href="#DejaVuSans-32"/>
       <use xlink:href="#DejaVuSans-30" transform="translate(63.623047 0)"/>
       <use xlink:href="#DejaVuSans-32" transform="translate(127.246094 0)"/>
       <use xlink:href="#DejaVuSans-33" transform="translate(190.869141 0)"/>
       <use xlink:href="#DejaVuSans-2d" transform="translate(254.492188 0)"/>
       <use xlink:href="#DejaVuSans-30" transform="translate(290.576172 0)"/>
       <use xlink:href="#DejaVuSans-31" transform="translate(354.199219 0)"/>
      </g>
     </g>
    </g>
    <g id="xtick_3">
     <g id="line2d_5">
      <path d="M 455.882322 435.718143 
L 455.882322 27.6 
" clip-path="url(#p6c222f57c9)" style="fill: none; stroke-dasharray: 2.96,1.28; stroke-dashoffset: 0; stroke: #b0b0b0; stroke-opacity: 0.5; stroke-width: 0.8"/>
     </g>
     <g id="line2d_6">
      <g>
       <use xlink:href="#ma11c5c0563" x="455.882322" y="435.718143" style="stroke: #000000; stroke-width: 0.8"/>
      </g>
     </g>
     <g id="text_3">
      <!-- 2023-07 -->
      <g transform="translate(443.06104 477.63596) rotate(-45) scale(0.1 -0.1)">
       <use xlink:href="#DejaVuSans-32"/>
       <use xlink:href="#DejaVuSans-30" transform="translate(63.623047 0)"/>
       <use xlink:href="#DejaVuSans-32" transform="translate(127.246094 0)"/>
       <use xlink:href="#DejaVuSans-33" transform="translate(190.869141 0)"/>
       <use xlink:href="#DejaVuSans-2d" transform="translate(254.492188 0)"/>
       <use xlink:href="#DejaVuSans-30" transform="translate(290.576172 0)"/>
       <use xlink:href="#DejaVuSans-37" transform="translate(354.199219 0)"/>
      </g>
     </g>
    </g>
    <g id="xtick_4">
     <g id="line2d_7">
      <path d="M 592.697534 435.718143 
L 592.697534 27.6 
" clip-path="url(#p6c222f57c9)" style="fill: none; stroke-dasharray: 2.96,1.28; stroke-dashoffset: 0; stroke: #b0b0b0; stroke-opacity: 0.5; stroke-width: 0.8"/>
     </g>
     <g id="line2d_8">
      <g>
       <use xlink:href="#ma11c5c0563" x="592.697534" y="435.718143" style="stroke: #000000; stroke-width: 0.8"/>
      </g>
     </g>
     <g id="text_4">
      <!-- 2024-01 -->
      <g transform="translate(579.876251 477.63596) rotate(-45) scale(0.1 -0.1)">
       <defs>
        <path id="DejaVuSans-34" d="M 2419 4116 
L 825 1625 
L 2419 1625 
L 2419 4116 
z
M 2253 4666 
L 3047 4666 
L 3047 1625 
L 3713 1625 
L 3713 1100 
L 3047 1100 
L 3047 0 
L 2419 0 
L 2419 1100 
L 313 1100 
L 313 1709 
L 2253 4666 
z
" transform="scale(0.015625)"/>
       </defs>
       <use xlink:href="#DejaVuSans-32"/>
       <use xlink:href="#DejaVuSans-30" transform="translate(63.623047 0)"/>
       <use xlink:href="#DejaVuSans-32" transform="translate(127.246094 0)"/>
       <use xlink:href="#DejaVuSans-34" transform="translate(190.869141 0)"/>
       <use xlink:href="#DejaVuSans-2d" transform="translate(254.492188 0)"/>
       <use xlink:href="#DejaVuSans-30" transform="translate(290.576172 0)"/>
       <use xlink:href="#DejaVuSans-31" transform="translate(354.199219 0)"/>
      </g>
     </g>
    </g>
    <g id="xtick_5">
     <g id="line2d_9">
      <path d="M 728.025624 435.718143 
L 728.025624 27.6 
" clip-path="url(#p6c222f57c9)" style="fill: none; stroke-dasharray: 2.96,1.28; stroke-dashoffset: 0; stroke: #b0b0b0; stroke-opacity: 0.5; stroke-width: 0.8"/>
     </g>
     <g id="line2d_10">
      <g>
       <use xlink:href="#ma11c5c0563" x="728.025624" y="435.718143" style="stroke: #000000; stroke-width: 0.8"/>
      </g>
     </g>
     <g id="text_5">
      <!-- 2024-07 -->
      <g transform="translate(715.204341 477.63596) rotate(-45) scale(0.1 -0.1)">
       <use xlink:href="#DejaVuSans-32"/>
       <use xlink:href="#DejaVuSans-30" transform="translate(63.623047 0)"/>
       <use xlink:href="#DejaVuSans-32" transform="translate(127.246094 0)"/>
       <use xlink:href="#DejaVuSans-34" transform="translate(190.869141 0)"/>
       <use xlink:href="#DejaVuSans-2d" transform="translate(254.492188 0)"/>
       <use xlink:href="#DejaVuSans-30" transform="translate(290.576172 0)"/>
       <use xlink:href="#DejaVuSans-37" transform="translate(354.199219 0)"/>
      </g>
     </g>
    </g>
    <g id="xtick_6">
     <g id="line2d_11">
      <path d="M 864.840835 435.718143 
L 864.840835 27.6 
" clip-path="url(#p6c222f57c9)" style="fill: none; stroke-dasharray: 2.96,1.28; stroke-dashoffset: 0; stroke: #b0b0b0; stroke-opacity: 0.5; stroke-width: 0.8"/>
     </g>
     <g id="line2d_12">
      <g>
       <use xlink:href="#ma11c5c0563" x="864.840835" y="435.718143" style="stroke: #000000; stroke-width: 0.8"/>
      </g>
     </g>
     <g id="text_6">
      <!-- 2025-01 -->
      <g transform="translate(852.019553 477.63596) rotate(-45) scale(0.1 -0.1)">
       <defs>
        <path id="DejaVuSans-35" d="M 691 4666 
L 3169 4666 
L 3169 4134 
L 1269 4134 
L 1269 2991 
Q 1406 3038 1543 3061 
Q 1681 3084 1819 3084 
Q 2600 3084 3056 2656 
Q 3513 2228 3513 1497 
Q 3513 744 3044 326 
Q 2575 -91 1722 -91 
Q 1428 -91 1123 -41 
Q 819 9 494 109 
L 494 744 
Q 775 591 1075 516 
Q 1375 441 1709 441 
Q 2250 441 2565 725 
Q 2881 1009 2881 1497 
Q 2881 1984 2565 2268 
Q 2250 2553 1709 2553 
Q 1456 2553 1204 2497 
Q 953 2441 691 2322 
L 691 4666 
z
" transform="scale(0.015625)"/>
       </defs>
       <use xlink:href="#DejaVuSans-32"/>
       <use xlink:href="#DejaVuSans-30" transform="translate(63.623047 0)"/>
       <use xlink:href="#DejaVuSans-32" transform="translate(127.246094 0)"/>
       <use xlink:href="#DejaVuSans-35" transform="translate(190.869141 0)"/>
       <use xlink:href="#DejaVuSans-2d" transform="translate(254.492188 0)"/>
       <use xlink:href="#DejaVuSans-30" transform="translate(290.576172 0)"/>
       <use xlink:href="#DejaVuSans-31" transform="translate(354.199219 0)"/>
      </g>
     </g>
    </g>
    <g id="text_7">
     <!-- Month -->
     <g transform="translate(508.363906 490.704958) scale(0.1 -0.1)">
      <defs>
       <path id="DejaVuSans-4d" d="M 628 4666 
L 1569 4666 
L 2759 1491 
L 3956 4666 
L 4897 4666 
L 4897 0 
L 4281 0 
L 4281 4097 
L 3078 897 
L 2444 897 
L 1241 4097 
L 1241 0 
L 628 0 
L 628 4666 
z
" transform="scale(0.015625)"/>
       <path id="DejaVuSans-6f" d="M 1959 3097 
Q 1497 3097 1228 2736 
Q 959 2375 959 1747 
Q 959 1119 1226 758 
Q 1494 397 1959 397 
Q 2419 397 2687 759 
Q 2956 1122 2956 1747 
Q 2956 2369 2687 2733 
Q 2419 3097 1959 3097 
z
M 1959 3584 
Q 2709 3584 3137 3096 
Q 3566 2609 3566 1747 
Q 3566 888 3137 398 
Q 2709 -91 1959 -91 
Q 1206 -91 779 398 
Q 353 888 353 1747 
Q 353 2609 779 3096 
Q 1206 3584 1959 3584 
z
" transform="scale(0.015625)"/>
       <path id="DejaVuSans-6e" d="M 3513 2113 
L 3513 0 
L 2938 0 
L 2938 2094 
Q 2938 2591 2744 2837 
Q 2550 3084 2163 3084 
Q 1697 3084 1428 2787 
Q 1159 2491 1159 1978 
L 1159 0 
L 581 0 
L 581 3500 
L 1159 3500 
L 1159 2956 
Q 1366 3272 1645 3428 
Q 1925 3584 2291 3584 
Q 2894 3584 3203 3211 
Q 3513 2838 3513 2113 
z
" transform="scale(0.015625)"/>
       <path id="DejaVuSans-74" d="M 1172 4494 
L 1172 3500 
L 2356 3500 
L 2356 3053 
L 1172 3053 
L 1172 1153 
Q 1172 725 1289 603 
Q 1406 481 1766 481 
L 2356 481 
L 2356 0 
L 1766 0 
Q 1100 0 847 248 
Q 594 497 594 1153 
L 594 3053 
L 172 3053 
L 172 3500 
L 594 3500 
L 594 4494 
L 1172 4494 
z
" transform="scale(0.015625)"/>
       <path id="DejaVuSans-68" d="M 3513 2113 
L 3513 0 
L 2938 0 
L 2938 2094 
Q 2938 2591 2744 2837 
Q 2550 3084 2163 3084 
Q 1697 3084 1428 2787 
Q 1159 2491 1159 1978 
L 1159 0 
L 581 0 
L 581 4863 
L 1159 4863 
L 1159 2956 
Q 1366 3272 1645 3428 
Q 1925 3584 2291 3584 
Q 2894 3584 3203 3211 
Q 3513 2838 3513 2113 
z
" transform="scale(0.015625)"/>
      </defs>
      <use xlink:href="#DejaVuSans-4d"/>
      <use xlink:href="#DejaVuSans-6f" transform="translate(86.279297 0)"/>
      <use xlink:href="#DejaVuSans-6e" transform="translate(147.460938 0)"/>
      <use xlink:href="#DejaVuSans-74" transform="translate(210.839844 0)"/>
      <use xlink:href="#DejaVuSans-68" transform="translate(250.048828 0)"/>
     </g>
    </g>
   </g>
   <g id="matplotlib.axis_2">
    <g id="ytick_1">
     <g id="line2d_13">
      <path d="M 50.87 417.167318 
L 997.2 417.167318 
" clip-path="url(#p6c222f57c9)" style="fill: none; stroke-dasharray: 2.96,1.28; stroke-dashoffset: 0; stroke: #b0b0b0; stroke-opacity: 0.5; stroke-width: 0.8"/>
     </g>
     <g id="line2d_14">
      <defs>
       <path id="mdbf7f997dc" d="M 0 0 
L -3.5 0 
" style="stroke: #000000; stroke-width: 0.8"/>
      </defs>
      <g>
       <use xlink:href="#mdbf7f997dc" x="50.87" y="417.167318" style="stroke: #000000; stroke-width: 0.8"/>
      </g>
     </g>
     <g id="text_8">
      <!-- 0 -->
      <g transform="translate(37.5075 420.966537) scale(0.1 -0.1)">
       <use xlink:href="#DejaVuSans-30"/>
      </g>
     </g>
    </g>
    <g id="ytick_2">
     <g id="line2d_15">
      <path d="M 50.87 370.790257 
L 997.2 370.790257 
" clip-path="url(#p6c222f57c9)" style="fill: none; stroke-dasharray: 2.96,1.28; stroke-dashoffset: 0; stroke: #b0b0b0; stroke-opacity: 0.5; stroke-width: 0.8"/>
     </g>
     <g id="line2d_16">
      <g>
       <use xlink:href="#mdbf7f997dc" x="50.87" y="370.790257" style="stroke: #000000; stroke-width: 0.8"/>
      </g>
     </g>
     <g id="text_9">
      <!-- 25 -->
      <g transform="translate(31.145 374.589475) scale(0.1 -0.1)">
       <use xlink:href="#DejaVuSans-32"/>
       <use xlink:href="#DejaVuSans-35" transform="translate(63.623047 0)"/>
      </g>
     </g>
    </g>
    <g id="ytick_3">
     <g id="line2d_17">
      <path d="M 50.87 324.413195 
L 997.2 324.413195 
" clip-path="url(#p6c222f57c9)" style="fill: none; stroke-dasharray: 2.96,1.28; stroke-dashoffset: 0; stroke: #b0b0b0; stroke-opacity: 0.5; stroke-width: 0.8"/>
     </g>
     <g id="line2d_18">
      <g>
       <use xlink:href="#mdbf7f997dc" x="50.87" y="324.413195" style="stroke: #000000; stroke-width: 0.8"/>
      </g>
     </g>
     <g id="text_10">
      <!-- 50 -->
      <g transform="translate(31.145 328.212414) scale(0.1 -0.1)">
       <use xlink:href="#DejaVuSans-35"/>
       <use xlink:href="#DejaVuSans-30" transform="translate(63.623047 0)"/>
      </g>
     </g>
    </g>
    <g id="ytick_4">
     <g id="line2d_19">
      <path d="M 50.87 278.036133 
L 997.2 278.036133 
" clip-path="url(#p6c222f57c9)" style="fill: none; stroke-dasharray: 2.96,1.28; stroke-dashoffset: 0; stroke: #b0b0b0; stroke-opacity: 0.5; stroke-width: 0.8"/>
     </g>
     <g id="line2d_20">
      <g>
       <use xlink:href="#mdbf7f997dc" x="50.87" y="278.036133" style="stroke: #000000; stroke-width: 0.8"/>
      </g>
     </g>
     <g id="text_11">
      <!-- 75 -->
      <g transform="translate(31.145 281.835352) scale(0.1 -0.1)">
       <use xlink:href="#DejaVuSans-37"/>
       <use xlink:href="#DejaVuSans-35" transform="translate(63.623047 0)"/>
      </g>
     </g>
    </g>
    <g id="ytick_5">
     <g id="line2d_21">
      <path d="M 50.87 231.659071 
L 997.2 231.659071 
" clip-path="url(#p6c222f57c9)" style="fill: none; stroke-dasharray: 2.96,1.28; stroke-dashoffset: 0; stroke: #b0b0b0; stroke-opacity: 0.5; stroke-width: 0.8"/>
     </g>
     <g id="line2d_22">
      <g>
       <use xlink:href="#mdbf7f997dc" x="50.87" y="231.659071" style="stroke: #000000; stroke-width: 0.8"/>
      </g>
     </g>
     <g id="text_12">
      <!-- 100 -->
      <g transform="translate(24.7825 235.45829) scale(0.1 -0.1)">
       <use xlink:href="#DejaVuSans-31"/>
       <use xlink:href="#DejaVuSans-30" transform="translate(63.623047 0)"/>
       <use xlink:href="#DejaVuSans-30" transform="translate(127.246094 0)"/>
      </g>
     </g>
    </g>
    <g id="ytick_6">
     <g id="line2d_23">
      <path d="M 50.87 185.28201 
L 997.2 185.28201 
" clip-path="url(#p6c222f57c9)" style="fill: none; stroke-dasharray: 2.96,1.28; stroke-dashoffset: 0; stroke: #b0b0b0; stroke-opacity: 0.5; stroke-width: 0.8"/>
     </g>
     <g id="line2d_24">
      <g>
       <use xlink:href="#mdbf7f997dc" x="50.87" y="185.28201" style="stroke: #000000; stroke-width: 0.8"/>
      </g>
     </g>
     <g id="text_13">
      <!-- 125 -->
      <g transform="translate(24.7825 189.081229) scale(0.1 -0.1)">
       <use xlink:href="#DejaVuSans-31"/>
       <use xlink:href="#DejaVuSans-32" transform="translate(63.623047 0)"/>
       <use xlink:href="#DejaVuSans-35" transform="translate(127.246094 0)"/>
      </g>
     </g>
    </g>
    <g id="ytick_7">
     <g id="line2d_25">
      <path d="M 50.87 138.904948 
L 997.2 138.904948 
" clip-path="url(#p6c222f57c9)" style="fill: none; stroke-dasharray: 2.96,1.28; stroke-dashoffset: 0; stroke: #b0b0b0; stroke-opacity: 0.5; stroke-width: 0.8"/>
     </g>
     <g id="line2d_26">
      <g>
       <use xlink:href="#mdbf7f997dc" x="50.87" y="138.904948" style="stroke: #000000; stroke-width: 0.8"/>
      </g>
     </g>
     <g id="text_14">
      <!-- 150 -->
      <g transform="translate(24.7825 142.704167) scale(0.1 -0.1)">
       <use xlink:href="#DejaVuSans-31"/>
       <use xlink:href="#DejaVuSans-35" transform="translate(63.623047 0)"/>
       <use xlink:href="#DejaVuSans-30" transform="translate(127.246094 0)"/>
      </g>
     </g>
    </g>
    <g id="ytick_8">
     <g id="line2d_27">
      <path d="M 50.87 92.527886 
L 997.2 92.527886 
" clip-path="url(#p6c222f57c9)" style="fill: none; stroke-dasharray: 2.96,1.28; stroke-dashoffset: 0; stroke: #b0b0b0; stroke-opacity: 0.5; stroke-width: 0.8"/>
     </g>
     <g id="line2d_28">
      <g>
       <use xlink:href="#mdbf7f997dc" x="50.87" y="92.527886" style="stroke: #000000; stroke-width: 0.8"/>
      </g>
     </g>
     <g id="text_15">
      <!-- 175 -->
      <g transform="translate(24.7825 96.327105) scale(0.1 -0.1)">
       <use xlink:href="#DejaVuSans-31"/>
       <use xlink:href="#DejaVuSans-37" transform="translate(63.623047 0)"/>
       <use xlink:href="#DejaVuSans-35" transform="translate(127.246094 0)"/>
      </g>
     </g>
    </g>
    <g id="ytick_9">
     <g id="line2d_29">
      <path d="M 50.87 46.150825 
L 997.2 46.150825 
" clip-path="url(#p6c222f57c9)" style="fill: none; stroke-dasharray: 2.96,1.28; stroke-dashoffset: 0; stroke: #b0b0b0; stroke-opacity: 0.5; stroke-width: 0.8"/>
     </g>
     <g id="line2d_30">
      <g>
       <use xlink:href="#mdbf7f997dc" x="50.87" y="46.150825" style="stroke: #000000; stroke-width: 0.8"/>
      </g>
     </g>
     <g id="text_16">
      <!-- 200 -->
      <g transform="translate(24.7825 49.950043) scale(0.1 -0.1)">
       <use xlink:href="#DejaVuSans-32"/>
       <use xlink:href="#DejaVuSans-30" transform="translate(63.623047 0)"/>
       <use xlink:href="#DejaVuSans-30" transform="translate(127.246094 0)"/>
      </g>
     </g>
    </g>
    <g id="text_17">
     <!-- Cumulative Count -->
     <g transform="translate(18.702812 276.634071) rotate(-90) scale(0.1 -0.1)">
      <defs>
       <path id="DejaVuSans-43" d="M 4122 4306 
L 4122 3641 
Q 3803 3938 3442 4084 
Q 3081 4231 2675 4231 
Q 1875 4231 1450 3742 
Q 1025 3253 1025 2328 
Q 1025 1406 1450 917 
Q 1875 428 2675 428 
Q 3081 428 3442 575 
Q 3803 722 4122 1019 
L 4122 359 
Q 3791 134 3420 21 
Q 3050 -91 2638 -91 
Q 1578 -91 968 557 
Q 359 1206 359 2328 
Q 359 3453 968 4101 
Q 1578 4750 2638 4750 
Q 3056 4750 3426 4639 
Q 3797 4528 4122 4306 
z
" transform="scale(0.015625)"/>
       <path id="DejaVuSans-75" d="M 544 1381 
L 544 3500 
L 1119 3500 
L 1119 1403 
Q 1119 906 1312 657 
Q 1506 409 1894 409 
Q 2359 409 2629 706 
Q 2900 1003 2900 1516 
L 2900 3500 
L 3475 3500 
L 3475 0 
L 2900 0 
L 2900 538 
Q 2691 219 2414 64 
Q 2138 -91 1772 -91 
Q 1169 -91 856 284 
Q 544 659 544 1381 
z
M 1991 3584 
L 1991 3584 
z
" transform="scale(0.015625)"/>
       <path id="DejaVuSans-6d" d="M 3328 2828 
Q 3544 3216 3844 3400 
Q 4144 3584 4550 3584 
Q 5097 3584 5394 3201 
Q 5691 2819 5691 2113 
L 5691 0 
L 5113 0 
L 5113 2094 
Q 5113 2597 4934 2840 
Q 4756 3084 4391 3084 
Q 3944 3084 3684 2787 
Q 3425 2491 3425 1978 
L 3425 0 
L 2847 0 
L 2847 2094 
Q 2847 2600 2669 2842 
Q 2491 3084 2119 3084 
Q 1678 3084 1418 2786 
Q 1159 2488 1159 1978 
L 1159 0 
L 581 0 
L 581 3500 
L 1159 3500 
L 1159 2956 
Q 1356 3278 1631 3431 
Q 1906 3584 2284 3584 
Q 2666 3584 2933 3390 
Q 3200 3197 3328 2828 
z
" transform="scale(0.015625)"/>
       <path id="DejaVuSans-6c" d="M 603 4863 
L 1178 4863 
L 1178 0 
L 603 0 
L 603 4863 
z
" transform="scale(0.015625)"/>
       <path id="DejaVuSans-61" d="M 2194 1759 
Q 1497 1759 1228 1600 
Q 959 1441 959 1056 
Q 959 750 1161 570 
Q 1363 391 1709 391 
Q 2188 391 2477 730 
Q 2766 1069 2766 1631 
L 2766 1759 
L 2194 1759 
z
M 3341 1997 
L 3341 0 
L 2766 0 
L 2766 531 
Q 2569 213 2275 61 
Q 1981 -91 1556 -91 
Q 1019 -91 701 211 
Q 384 513 384 1019 
Q 384 1609 779 1909 
Q 1175 2209 1959 2209 
L 2766 2209 
L 2766 2266 
Q 2766 2663 2505 2880 
Q 2244 3097 1772 3097 
Q 1472 3097 1187 3025 
Q 903 2953 641 2809 
L 641 3341 
Q 956 3463 1253 3523 
Q 1550 3584 1831 3584 
Q 2591 3584 2966 3190 
Q 3341 2797 3341 1997 
z
" transform="scale(0.015625)"/>
       <path id="DejaVuSans-69" d="M 603 3500 
L 1178 3500 
L 1178 0 
L 603 0 
L 603 3500 
z
M 603 4863 
L 1178 4863 
L 1178 4134 
L 603 4134 
L 603 4863 
z
" transform="scale(0.015625)"/>
       <path id="DejaVuSans-76" d="M 191 3500 
L 800 3500 
L 1894 563 
L 2988 3500 
L 3597 3500 
L 2284 0 
L 1503 0 
L 191 3500 
z
" transform="scale(0.015625)"/>
       <path id="DejaVuSans-65" d="M 3597 1894 
L 3597 1613 
L 953 1613 
Q 991 1019 1311 708 
Q 1631 397 2203 397 
Q 2534 397 2845 478 
Q 3156 559 3463 722 
L 3463 178 
Q 3153 47 2828 -22 
Q 2503 -91 2169 -91 
Q 1331 -91 842 396 
Q 353 884 353 1716 
Q 353 2575 817 3079 
Q 1281 3584 2069 3584 
Q 2775 3584 3186 3129 
Q 3597 2675 3597 1894 
z
M 3022 2063 
Q 3016 2534 2758 2815 
Q 2500 3097 2075 3097 
Q 1594 3097 1305 2825 
Q 1016 2553 972 2059 
L 3022 2063 
z
" transform="scale(0.015625)"/>
       <path id="DejaVuSans-20" transform="scale(0.015625)"/>
      </defs>
      <use xlink:href="#DejaVuSans-43"/>
      <use xlink:href="#DejaVuSans-75" transform="translate(69.824219 0)"/>
      <use xlink:href="#DejaVuSans-6d" transform="translate(133.203125 0)"/>
      <use xlink:href="#DejaVuSans-75" transform="translate(230.615234 0)"/>
      <use xlink:href="#DejaVuSans-6c" transform="translate(293.994141 0)"/>
      <use xlink:href="#DejaVuSans-61" transform="translate(321.777344 0)"/>
      <use xlink:href="#DejaVuSans-74" transform="translate(383.056641 0)"/>
      <use xlink:href="#DejaVuSans-69" transform="translate(422.265625 0)"/>
      <use xlink:href="#DejaVuSans-76" transform="translate(450.048828 0)"/>
      <use xlink:href="#DejaVuSans-65" transform="translate(509.228516 0)"/>
      <use xlink:href="#DejaVuSans-20" transform="translate(570.751953 0)"/>
      <use xlink:href="#DejaVuSans-43" transform="translate(602.539062 0)"/>
      <use xlink:href="#DejaVuSans-6f" transform="translate(672.363281 0)"/>
      <use xlink:href="#DejaVuSans-75" transform="translate(733.544922 0)"/>
      <use xlink:href="#DejaVuSans-6e" transform="translate(796.923828 0)"/>
      <use xlink:href="#DejaVuSans-74" transform="translate(860.302734 0)"/>
     </g>
    </g>
   </g>
   <g id="line2d_31">
    <path d="M 93.885 415.312236 
L 116.935389 409.746988 
L 139.242217 396.761411 
L 162.292606 391.196164 
L 184.599434 383.775834 
L 207.649823 381.920751 
L 230.700212 372.645339 
L 253.00704 324.413195 
L 276.057429 237.224319 
L 298.364257 177.86168 
L 321.414646 155.60069 
L 344.465035 153.745608 
L 365.284741 133.339701 
L 388.33513 133.339701 
L 410.641958 131.484618 
L 433.692347 127.774453 
L 455.999175 118.499041 
L 479.049564 118.499041 
L 502.099952 109.223629 
L 524.40678 107.368546 
L 547.457169 105.513464 
L 569.763997 105.513464 
L 592.814386 105.513464 
L 615.864775 92.527886 
L 637.428042 75.832144 
L 660.478431 48.005907 
L 682.785259 48.005907 
L 705.835648 48.005907 
L 728.142476 48.005907 
L 751.192865 48.005907 
L 774.243254 48.005907 
L 796.550082 48.005907 
L 819.600471 48.005907 
L 841.907299 48.005907 
L 864.957688 48.005907 
L 888.008077 48.005907 
L 908.827783 48.005907 
L 931.878172 48.005907 
L 954.185 46.150825 
" clip-path="url(#p6c222f57c9)" style="fill: none; stroke: #cccccc; stroke-width: 2; stroke-linecap: square"/>
    <defs>
     <path id="mfe72551678" d="M 0 1.5 
C 0.397805 1.5 0.77937 1.341951 1.06066 1.06066 
C 1.341951 0.77937 1.5 0.397805 1.5 0 
C 1.5 -0.397805 1.341951 -0.77937 1.06066 -1.06066 
C 0.77937 -1.341951 0.397805 -1.5 0 -1.5 
C -0.397805 -1.5 -0.77937 -1.341951 -1.06066 -1.06066 
C -1.341951 -0.77937 -1.5 -0.397805 -1.5 0 
C -1.5 0.397805 -1.341951 0.77937 -1.06066 1.06066 
C -0.77937 1.341951 -0.397805 1.5 0 1.5 
z
" style="stroke: #cccccc"/>
    </defs>
    <g clip-path="url(#p6c222f57c9)">
     <use xlink:href="#mfe72551678" x="93.885" y="415.312236" style="fill: #cccccc; stroke: #cccccc"/>
     <use xlink:href="#mfe72551678" x="116.935389" y="409.746988" style="fill: #cccccc; stroke: #cccccc"/>
     <use xlink:href="#mfe72551678" x="139.242217" y="396.761411" style="fill: #cccccc; stroke: #cccccc"/>
     <use xlink:href="#mfe72551678" x="162.292606" y="391.196164" style="fill: #cccccc; stroke: #cccccc"/>
     <use xlink:href="#mfe72551678" x="184.599434" y="383.775834" style="fill: #cccccc; stroke: #cccccc"/>
     <use xlink:href="#mfe72551678" x="207.649823" y="381.920751" style="fill: #cccccc; stroke: #cccccc"/>
     <use xlink:href="#mfe72551678" x="230.700212" y="372.645339" style="fill: #cccccc; stroke: #cccccc"/>
     <use xlink:href="#mfe72551678" x="253.00704" y="324.413195" style="fill: #cccccc; stroke: #cccccc"/>
     <use xlink:href="#mfe72551678" x="276.057429" y="237.224319" style="fill: #cccccc; stroke: #cccccc"/>
     <use xlink:href="#mfe72551678" x="298.364257" y="177.86168" style="fill: #cccccc; stroke: #cccccc"/>
     <use xlink:href="#mfe72551678" x="321.414646" y="155.60069" style="fill: #cccccc; stroke: #cccccc"/>
     <use xlink:href="#mfe72551678" x="344.465035" y="153.745608" style="fill: #cccccc; stroke: #cccccc"/>
     <use xlink:href="#mfe72551678" x="365.284741" y="133.339701" style="fill: #cccccc; stroke: #cccccc"/>
     <use xlink:href="#mfe72551678" x="388.33513" y="133.339701" style="fill: #cccccc; stroke: #cccccc"/>
     <use xlink:href="#mfe72551678" x="410.641958" y="131.484618" style="fill: #cccccc; stroke: #cccccc"/>
     <use xlink:href="#mfe72551678" x="433.692347" y="127.774453" style="fill: #cccccc; stroke: #cccccc"/>
     <use xlink:href="#mfe72551678" x="455.999175" y="118.499041" style="fill: #cccccc; stroke: #cccccc"/>
     <use xlink:href="#mfe72551678" x="479.049564" y="118.499041" style="fill: #cccccc; stroke: #cccccc"/>
     <use xlink:href="#mfe72551678" x="502.099952" y="109.223629" style="fill: #cccccc; stroke: #cccccc"/>
     <use xlink:href="#mfe72551678" x="524.40678" y="107.368546" style="fill: #cccccc; stroke: #cccccc"/>
     <use xlink:href="#mfe72551678" x="547.457169" y="105.513464" style="fill: #cccccc; stroke: #cccccc"/>
     <use xlink:href="#mfe72551678" x="569.763997" y="105.513464" style="fill: #cccccc; stroke: #cccccc"/>
     <use xlink:href="#mfe72551678" x="592.814386" y="105.513464" style="fill: #cccccc; stroke: #cccccc"/>
     <use xlink:href="#mfe72551678" x="615.864775" y="92.527886" style="fill: #cccccc; stroke: #cccccc"/>
     <use xlink:href="#mfe72551678" x="637.428042" y="75.832144" style="fill: #cccccc; stroke: #cccccc"/>
     <use xlink:href="#mfe72551678" x="660.478431" y="48.005907" style="fill: #cccccc; stroke: #cccccc"/>
     <use xlink:href="#mfe72551678" x="682.785259" y="48.005907" style="fill: #cccccc; stroke: #cccccc"/>
     <use xlink:href="#mfe72551678" x="705.835648" y="48.005907" style="fill: #cccccc; stroke: #cccccc"/>
     <use xlink:href="#mfe72551678" x="728.142476" y="48.005907" style="fill: #cccccc; stroke: #cccccc"/>
     <use xlink:href="#mfe72551678" x="751.192865" y="48.005907" style="fill: #cccccc; stroke: #cccccc"/>
     <use xlink:href="#mfe72551678" x="774.243254" y="48.005907" style="fill: #cccccc; stroke: #cccccc"/>
     <use xlink:href="#mfe72551678" x="796.550082" y="48.005907" style="fill: #cccccc; stroke: #cccccc"/>
     <use xlink:href="#mfe72551678" x="819.600471" y="48.005907" style="fill: #cccccc; stroke: #cccccc"/>
     <use xlink:href="#mfe72551678" x="841.907299" y="48.005907" style="fill: #cccccc; stroke: #cccccc"/>
     <use xlink:href="#mfe72551678" x="864.957688" y="48.005907" style="fill: #cccccc; stroke: #cccccc"/>
     <use xlink:href="#mfe72551678" x="888.008077" y="48.005907" style="fill: #cccccc; stroke: #cccccc"/>
     <use xlink:href="#mfe72551678" x="908.827783" y="48.005907" style="fill: #cccccc; stroke: #cccccc"/>
     <use xlink:href="#mfe72551678" x="931.878172" y="48.005907" style="fill: #cccccc; stroke: #cccccc"/>
     <use xlink:href="#mfe72551678" x="954.185" y="46.150825" style="fill: #cccccc; stroke: #cccccc"/>
    </g>
   </g>
   <g id="line2d_32">
    <path d="M 93.885 417.167318 
L 116.935389 417.167318 
L 139.242217 417.167318 
L 162.292606 417.167318 
L 184.599434 417.167318 
L 207.649823 417.167318 
L 230.700212 417.167318 
L 253.00704 415.312236 
L 276.057429 415.312236 
L 298.364257 387.485999 
L 321.414646 385.630916 
L 344.465035 380.065669 
L 365.284741 359.659762 
L 388.33513 354.094514 
L 410.641958 344.819102 
L 433.692347 344.819102 
L 455.999175 344.819102 
L 479.049564 344.819102 
L 502.099952 344.819102 
L 524.40678 333.688607 
L 547.457169 333.688607 
L 569.763997 333.688607 
L 592.814386 333.688607 
L 615.864775 326.268277 
L 637.428042 326.268277 
L 660.478431 326.268277 
L 682.785259 326.268277 
L 705.835648 326.268277 
L 728.142476 326.268277 
L 751.192865 326.268277 
L 774.243254 326.268277 
L 796.550082 326.268277 
L 819.600471 326.268277 
L 841.907299 326.268277 
L 864.957688 326.268277 
L 888.008077 326.268277 
L 908.827783 326.268277 
L 931.878172 326.268277 
L 954.185 326.268277 
" clip-path="url(#p6c222f57c9)" style="fill: none; stroke: #77ff77; stroke-width: 2; stroke-linecap: square"/>
    <defs>
     <path id="m3644ee1903" d="M 0 1.5 
C 0.397805 1.5 0.77937 1.341951 1.06066 1.06066 
C 1.341951 0.77937 1.5 0.397805 1.5 0 
C 1.5 -0.397805 1.341951 -0.77937 1.06066 -1.06066 
C 0.77937 -1.341951 0.397805 -1.5 0 -1.5 
C -0.397805 -1.5 -0.77937 -1.341951 -1.06066 -1.06066 
C -1.341951 -0.77937 -1.5 -0.397805 -1.5 0 
C -1.5 0.397805 -1.341951 0.77937 -1.06066 1.06066 
C -0.77937 1.341951 -0.397805 1.5 0 1.5 
z
" style="stroke: #77ff77"/>
    </defs>
    <g clip-path="url(#p6c222f57c9)">
     <use xlink:href="#m3644ee1903" x="93.885" y="417.167318" style="fill: #77ff77; stroke: #77ff77"/>
     <use xlink:href="#m3644ee1903" x="116.935389" y="417.167318" style="fill: #77ff77; stroke: #77ff77"/>
     <use xlink:href="#m3644ee1903" x="139.242217" y="417.167318" style="fill: #77ff77; stroke: #77ff77"/>
     <use xlink:href="#m3644ee1903" x="162.292606" y="417.167318" style="fill: #77ff77; stroke: #77ff77"/>
     <use xlink:href="#m3644ee1903" x="184.599434" y="417.167318" style="fill: #77ff77; stroke: #77ff77"/>
     <use xlink:href="#m3644ee1903" x="207.649823" y="417.167318" style="fill: #77ff77; stroke: #77ff77"/>
     <use xlink:href="#m3644ee1903" x="230.700212" y="417.167318" style="fill: #77ff77; stroke: #77ff77"/>
     <use xlink:href="#m3644ee1903" x="253.00704" y="415.312236" style="fill: #77ff77; stroke: #77ff77"/>
     <use xlink:href="#m3644ee1903" x="276.057429" y="415.312236" style="fill: #77ff77; stroke: #77ff77"/>
     <use xlink:href="#m3644ee1903" x="298.364257" y="387.485999" style="fill: #77ff77; stroke: #77ff77"/>
     <use xlink:href="#m3644ee1903" x="321.414646" y="385.630916" style="fill: #77ff77; stroke: #77ff77"/>
     <use xlink:href="#m3644ee1903" x="344.465035" y="380.065669" style="fill: #77ff77; stroke: #77ff77"/>
     <use xlink:href="#m3644ee1903" x="365.284741" y="359.659762" style="fill: #77ff77; stroke: #77ff77"/>
     <use xlink:href="#m3644ee1903" x="388.33513" y="354.094514" style="fill: #77ff77; stroke: #77ff77"/>
     <use xlink:href="#m3644ee1903" x="410.641958" y="344.819102" style="fill: #77ff77; stroke: #77ff77"/>
     <use xlink:href="#m3644ee1903" x="433.692347" y="344.819102" style="fill: #77ff77; stroke: #77ff77"/>
     <use xlink:href="#m3644ee1903" x="455.999175" y="344.819102" style="fill: #77ff77; stroke: #77ff77"/>
     <use xlink:href="#m3644ee1903" x="479.049564" y="344.819102" style="fill: #77ff77; stroke: #77ff77"/>
     <use xlink:href="#m3644ee1903" x="502.099952" y="344.819102" style="fill: #77ff77; stroke: #77ff77"/>
     <use xlink:href="#m3644ee1903" x="524.40678" y="333.688607" style="fill: #77ff77; stroke: #77ff77"/>
     <use xlink:href="#m3644ee1903" x="547.457169" y="333.688607" style="fill: #77ff77; stroke: #77ff77"/>
     <use xlink:href="#m3644ee1903" x="569.763997" y="333.688607" style="fill: #77ff77; stroke: #77ff77"/>
     <use xlink:href="#m3644ee1903" x="592.814386" y="333.688607" style="fill: #77ff77; stroke: #77ff77"/>
     <use xlink:href="#m3644ee1903" x="615.864775" y="326.268277" style="fill: #77ff77; stroke: #77ff77"/>
     <use xlink:href="#m3644ee1903" x="637.428042" y="326.268277" style="fill: #77ff77; stroke: #77ff77"/>
     <use xlink:href="#m3644ee1903" x="660.478431" y="326.268277" style="fill: #77ff77; stroke: #77ff77"/>
     <use xlink:href="#m3644ee1903" x="682.785259" y="326.268277" style="fill: #77ff77; stroke: #77ff77"/>
     <use xlink:href="#m3644ee1903" x="705.835648" y="326.268277" style="fill: #77ff77; stroke: #77ff77"/>
     <use xlink:href="#m3644ee1903" x="728.142476" y="326.268277" style="fill: #77ff77; stroke: #77ff77"/>
     <use xlink:href="#m3644ee1903" x="751.192865" y="326.268277" style="fill: #77ff77; stroke: #77ff77"/>
     <use xlink:href="#m3644ee1903" x="774.243254" y="326.268277" style="fill: #77ff77; stroke: #77ff77"/>
     <use xlink:href="#m3644ee1903" x="796.550082" y="326.268277" style="fill: #77ff77; stroke: #77ff77"/>
     <use xlink:href="#m3644ee1903" x="819.600471" y="326.268277" style="fill: #77ff77; stroke: #77ff77"/>
     <use xlink:href="#m3644ee1903" x="841.907299" y="326.268277" style="fill: #77ff77; stroke: #77ff77"/>
     <use xlink:href="#m3644ee1903" x="864.957688" y="326.268277" style="fill: #77ff77; stroke: #77ff77"/>
     <use xlink:href="#m3644ee1903" x="888.008077" y="326.268277" style="fill: #77ff77; stroke: #77ff77"/>
     <use xlink:href="#m3644ee1903" x="908.827783" y="326.268277" style="fill: #77ff77; stroke: #77ff77"/>
     <use xlink:href="#m3644ee1903" x="931.878172" y="326.268277" style="fill: #77ff77; stroke: #77ff77"/>
     <use xlink:href="#m3644ee1903" x="954.185" y="326.268277" style="fill: #77ff77; stroke: #77ff77"/>
    </g>
   </g>
   <g id="line2d_33">
    <path d="M 93.885 417.167318 
L 116.935389 417.167318 
L 139.242217 417.167318 
L 162.292606 417.167318 
L 184.599434 417.167318 
L 207.649823 417.167318 
L 230.700212 417.167318 
L 253.00704 417.167318 
L 276.057429 417.167318 
L 298.364257 417.167318 
L 321.414646 417.167318 
L 344.465035 417.167318 
L 365.284741 417.167318 
L 388.33513 417.167318 
L 410.641958 409.746988 
L 433.692347 409.746988 
L 455.999175 409.746988 
L 479.049564 409.746988 
L 502.099952 409.746988 
L 524.40678 404.181741 
L 547.457169 404.181741 
L 569.763997 404.181741 
L 592.814386 404.181741 
L 615.864775 404.181741 
L 637.428042 404.181741 
L 660.478431 404.181741 
L 682.785259 404.181741 
L 705.835648 404.181741 
L 728.142476 404.181741 
L 751.192865 404.181741 
L 774.243254 404.181741 
L 796.550082 404.181741 
L 819.600471 404.181741 
L 841.907299 404.181741 
L 864.957688 404.181741 
L 888.008077 404.181741 
L 908.827783 404.181741 
L 931.878172 404.181741 
L 954.185 404.181741 
" clip-path="url(#p6c222f57c9)" style="fill: none; stroke: #77ddff; stroke-width: 2; stroke-linecap: square"/>
    <defs>
     <path id="mb3e2e1e4fd" d="M 0 1.5 
C 0.397805 1.5 0.77937 1.341951 1.06066 1.06066 
C 1.341951 0.77937 1.5 0.397805 1.5 0 
C 1.5 -0.397805 1.341951 -0.77937 1.06066 -1.06066 
C 0.77937 -1.341951 0.397805 -1.5 0 -1.5 
C -0.397805 -1.5 -0.77937 -1.341951 -1.06066 -1.06066 
C -1.341951 -0.77937 -1.5 -0.397805 -1.5 0 
C -1.5 0.397805 -1.341951 0.77937 -1.06066 1.06066 
C -0.77937 1.341951 -0.397805 1.5 0 1.5 
z
" style="stroke: #77ddff"/>
    </defs>
    <g clip-path="url(#p6c222f57c9)">
     <use xlink:href="#mb3e2e1e4fd" x="93.885" y="417.167318" style="fill: #77ddff; stroke: #77ddff"/>
     <use xlink:href="#mb3e2e1e4fd" x="116.935389" y="417.167318" style="fill: #77ddff; stroke: #77ddff"/>
     <use xlink:href="#mb3e2e1e4fd" x="139.242217" y="417.167318" style="fill: #77ddff; stroke: #77ddff"/>
     <use xlink:href="#mb3e2e1e4fd" x="162.292606" y="417.167318" style="fill: #77ddff; stroke: #77ddff"/>
     <use xlink:href="#mb3e2e1e4fd" x="184.599434" y="417.167318" style="fill: #77ddff; stroke: #77ddff"/>
     <use xlink:href="#mb3e2e1e4fd" x="207.649823" y="417.167318" style="fill: #77ddff; stroke: #77ddff"/>
     <use xlink:href="#mb3e2e1e4fd" x="230.700212" y="417.167318" style="fill: #77ddff; stroke: #77ddff"/>
     <use xlink:href="#mb3e2e1e4fd" x="253.00704" y="417.167318" style="fill: #77ddff; stroke: #77ddff"/>
     <use xlink:href="#mb3e2e1e4fd" x="276.057429" y="417.167318" style="fill: #77ddff; stroke: #77ddff"/>
     <use xlink:href="#mb3e2e1e4fd" x="298.364257" y="417.167318" style="fill: #77ddff; stroke: #77ddff"/>
     <use xlink:href="#mb3e2e1e4fd" x="321.414646" y="417.167318" style="fill: #77ddff; stroke: #77ddff"/>
     <use xlink:href="#mb3e2e1e4fd" x="344.465035" y="417.167318" style="fill: #77ddff; stroke: #77ddff"/>
     <use xlink:href="#mb3e2e1e4fd" x="365.284741" y="417.167318" style="fill: #77ddff; stroke: #77ddff"/>
     <use xlink:href="#mb3e2e1e4fd" x="388.33513" y="417.167318" style="fill: #77ddff; stroke: #77ddff"/>
     <use xlink:href="#mb3e2e1e4fd" x="410.641958" y="409.746988" style="fill: #77ddff; stroke: #77ddff"/>
     <use xlink:href="#mb3e2e1e4fd" x="433.692347" y="409.746988" style="fill: #77ddff; stroke: #77ddff"/>
     <use xlink:href="#mb3e2e1e4fd" x="455.999175" y="409.746988" style="fill: #77ddff; stroke: #77ddff"/>
     <use xlink:href="#mb3e2e1e4fd" x="479.049564" y="409.746988" style="fill: #77ddff; stroke: #77ddff"/>
     <use xlink:href="#mb3e2e1e4fd" x="502.099952" y="409.746988" style="fill: #77ddff; stroke: #77ddff"/>
     <use xlink:href="#mb3e2e1e4fd" x="524.40678" y="404.181741" style="fill: #77ddff; stroke: #77ddff"/>
     <use xlink:href="#mb3e2e1e4fd" x="547.457169" y="404.181741" style="fill: #77ddff; stroke: #77ddff"/>
     <use xlink:href="#mb3e2e1e4fd" x="569.763997" y="404.181741" style="fill: #77ddff; stroke: #77ddff"/>
     <use xlink:href="#mb3e2e1e4fd" x="592.814386" y="404.181741" style="fill: #77ddff; stroke: #77ddff"/>
     <use xlink:href="#mb3e2e1e4fd" x="615.864775" y="404.181741" style="fill: #77ddff; stroke: #77ddff"/>
     <use xlink:href="#mb3e2e1e4fd" x="637.428042" y="404.181741" style="fill: #77ddff; stroke: #77ddff"/>
     <use xlink:href="#mb3e2e1e4fd" x="660.478431" y="404.181741" style="fill: #77ddff; stroke: #77ddff"/>
     <use xlink:href="#mb3e2e1e4fd" x="682.785259" y="404.181741" style="fill: #77ddff; stroke: #77ddff"/>
     <use xlink:href="#mb3e2e1e4fd" x="705.835648" y="404.181741" style="fill: #77ddff; stroke: #77ddff"/>
     <use xlink:href="#mb3e2e1e4fd" x="728.142476" y="404.181741" style="fill: #77ddff; stroke: #77ddff"/>
     <use xlink:href="#mb3e2e1e4fd" x="751.192865" y="404.181741" style="fill: #77ddff; stroke: #77ddff"/>
     <use xlink:href="#mb3e2e1e4fd" x="774.243254" y="404.181741" style="fill: #77ddff; stroke: #77ddff"/>
     <use xlink:href="#mb3e2e1e4fd" x="796.550082" y="404.181741" style="fill: #77ddff; stroke: #77ddff"/>
     <use xlink:href="#mb3e2e1e4fd" x="819.600471" y="404.181741" style="fill: #77ddff; stroke: #77ddff"/>
     <use xlink:href="#mb3e2e1e4fd" x="841.907299" y="404.181741" style="fill: #77ddff; stroke: #77ddff"/>
     <use xlink:href="#mb3e2e1e4fd" x="864.957688" y="404.181741" style="fill: #77ddff; stroke: #77ddff"/>
     <use xlink:href="#mb3e2e1e4fd" x="888.008077" y="404.181741" style="fill: #77ddff; stroke: #77ddff"/>
     <use xlink:href="#mb3e2e1e4fd" x="908.827783" y="404.181741" style="fill: #77ddff; stroke: #77ddff"/>
     <use xlink:href="#mb3e2e1e4fd" x="931.878172" y="404.181741" style="fill: #77ddff; stroke: #77ddff"/>
     <use xlink:href="#mb3e2e1e4fd" x="954.185" y="404.181741" style="fill: #77ddff; stroke: #77ddff"/>
    </g>
   </g>
   <g id="patch_3">
    <path d="M 50.87 435.718143 
L 50.87 27.6 
" style="fill: none; stroke: #000000; stroke-width: 0.8; stroke-linejoin: miter; stroke-linecap: square"/>
   </g>
   <g id="patch_4">
    <path d="M 997.2 435.718143 
L 997.2 27.6 
" style="fill: none; stroke: #000000; stroke-width: 0.8; stroke-linejoin: miter; stroke-linecap: square"/>
   </g>
   <g id="patch_5">
    <path d="M 50.87 435.718143 
L 997.2 435.718143 
" style="fill: none; stroke: #000000; stroke-width: 0.8; stroke-linejoin: miter; stroke-linecap: square"/>
   </g>
   <g id="patch_6">
    <path d="M 50.87 27.6 
L 997.2 27.6 
" style="fill: none; stroke: #000000; stroke-width: 0.8; stroke-linejoin: miter; stroke-linecap: square"/>
   </g>
   <g id="text_18">
    <!-- InsaneArrogant - Cumulative Solved Problems by Difficulty (Monthly) -->
    <g transform="translate(283.1125 21.6) scale(0.14 -0.14)">
     <defs>
      <path id="DejaVuSans-49" d="M 628 4666 
L 1259 4666 
L 1259 0 
L 628 0 
L 628 4666 
z
" transform="scale(0.015625)"/>
      <path id="DejaVuSans-73" d="M 2834 3397 
L 2834 2853 
Q 2591 2978 2328 3040 
Q 2066 3103 1784 3103 
Q 1356 3103 1142 2972 
Q 928 2841 928 2578 
Q 928 2378 1081 2264 
Q 1234 2150 1697 2047 
L 1894 2003 
Q 2506 1872 2764 1633 
Q 3022 1394 3022 966 
Q 3022 478 2636 193 
Q 2250 -91 1575 -91 
Q 1294 -91 989 -36 
Q 684 19 347 128 
L 347 722 
Q 666 556 975 473 
Q 1284 391 1588 391 
Q 1994 391 2212 530 
Q 2431 669 2431 922 
Q 2431 1156 2273 1281 
Q 2116 1406 1581 1522 
L 1381 1569 
Q 847 1681 609 1914 
Q 372 2147 372 2553 
Q 372 3047 722 3315 
Q 1072 3584 1716 3584 
Q 2034 3584 2315 3537 
Q 2597 3491 2834 3397 
z
" transform="scale(0.015625)"/>
      <path id="DejaVuSans-41" d="M 2188 4044 
L 1331 1722 
L 3047 1722 
L 2188 4044 
z
M 1831 4666 
L 2547 4666 
L 4325 0 
L 3669 0 
L 3244 1197 
L 1141 1197 
L 716 0 
L 50 0 
L 1831 4666 
z
" transform="scale(0.015625)"/>
      <path id="DejaVuSans-72" d="M 2631 2963 
Q 2534 3019 2420 3045 
Q 2306 3072 2169 3072 
Q 1681 3072 1420 2755 
Q 1159 2438 1159 1844 
L 1159 0 
L 581 0 
L 581 3500 
L 1159 3500 
L 1159 2956 
Q 1341 3275 1631 3429 
Q 1922 3584 2338 3584 
Q 2397 3584 2469 3576 
Q 2541 3569 2628 3553 
L 2631 2963 
z
" transform="scale(0.015625)"/>
      <path id="DejaVuSans-67" d="M 2906 1791 
Q 2906 2416 2648 2759 
Q 2391 3103 1925 3103 
Q 1463 3103 1205 2759 
Q 947 2416 947 1791 
Q 947 1169 1205 825 
Q 1463 481 1925 481 
Q 2391 481 2648 825 
Q 2906 1169 2906 1791 
z
M 3481 434 
Q 3481 -459 3084 -895 
Q 2688 -1331 1869 -1331 
Q 1566 -1331 1297 -1286 
Q 1028 -1241 775 -1147 
L 775 -588 
Q 1028 -725 1275 -790 
Q 1522 -856 1778 -856 
Q 2344 -856 2625 -561 
Q 2906 -266 2906 331 
L 2906 616 
Q 2728 306 2450 153 
Q 2172 0 1784 0 
Q 1141 0 747 490 
Q 353 981 353 1791 
Q 353 2603 747 3093 
Q 1141 3584 1784 3584 
Q 2172 3584 2450 3431 
Q 2728 3278 2906 2969 
L 2906 3500 
L 3481 3500 
L 3481 434 
z
" transform="scale(0.015625)"/>
      <path id="DejaVuSans-53" d="M 3425 4513 
L 3425 3897 
Q 3066 4069 2747 4153 
Q 2428 4238 2131 4238 
Q 1616 4238 1336 4038 
Q 1056 3838 1056 3469 
Q 1056 3159 1242 3001 
Q 1428 2844 1947 2747 
L 2328 2669 
Q 3034 2534 3370 2195 
Q 3706 1856 3706 1288 
Q 3706 609 3251 259 
Q 2797 -91 1919 -91 
Q 1588 -91 1214 -16 
Q 841 59 441 206 
L 441 856 
Q 825 641 1194 531 
Q 1563 422 1919 422 
Q 2459 422 2753 634 
Q 3047 847 3047 1241 
Q 3047 1584 2836 1778 
Q 2625 1972 2144 2069 
L 1759 2144 
Q 1053 2284 737 2584 
Q 422 2884 422 3419 
Q 422 4038 858 4394 
Q 1294 4750 2059 4750 
Q 2388 4750 2728 4690 
Q 3069 4631 3425 4513 
z
" transform="scale(0.015625)"/>
      <path id="DejaVuSans-64" d="M 2906 2969 
L 2906 4863 
L 3481 4863 
L 3481 0 
L 2906 0 
L 2906 525 
Q 2725 213 2448 61 
Q 2172 -91 1784 -91 
Q 1150 -91 751 415 
Q 353 922 353 1747 
Q 353 2572 751 3078 
Q 1150 3584 1784 3584 
Q 2172 3584 2448 3432 
Q 2725 3281 2906 2969 
z
M 947 1747 
Q 947 1113 1208 752 
Q 1469 391 1925 391 
Q 2381 391 2643 752 
Q 2906 1113 2906 1747 
Q 2906 2381 2643 2742 
Q 2381 3103 1925 3103 
Q 1469 3103 1208 2742 
Q 947 2381 947 1747 
z
" transform="scale(0.015625)"/>
      <path id="DejaVuSans-50" d="M 1259 4147 
L 1259 2394 
L 2053 2394 
Q 2494 2394 2734 2622 
Q 2975 2850 2975 3272 
Q 2975 3691 2734 3919 
Q 2494 4147 2053 4147 
L 1259 4147 
z
M 628 4666 
L 2053 4666 
Q 2838 4666 3239 4311 
Q 3641 3956 3641 3272 
Q 3641 2581 3239 2228 
Q 2838 1875 2053 1875 
L 1259 1875 
L 1259 0 
L 628 0 
L 628 4666 
z
" transform="scale(0.015625)"/>
      <path id="DejaVuSans-62" d="M 3116 1747 
Q 3116 2381 2855 2742 
Q 2594 3103 2138 3103 
Q 1681 3103 1420 2742 
Q 1159 2381 1159 1747 
Q 1159 1113 1420 752 
Q 1681 391 2138 391 
Q 2594 391 2855 752 
Q 3116 1113 3116 1747 
z
M 1159 2969 
Q 1341 3281 1617 3432 
Q 1894 3584 2278 3584 
Q 2916 3584 3314 3078 
Q 3713 2572 3713 1747 
Q 3713 922 3314 415 
Q 2916 -91 2278 -91 
Q 1894 -91 1617 61 
Q 1341 213 1159 525 
L 1159 0 
L 581 0 
L 581 4863 
L 1159 4863 
L 1159 2969 
z
" transform="scale(0.015625)"/>
      <path id="DejaVuSans-79" d="M 2059 -325 
Q 1816 -950 1584 -1140 
Q 1353 -1331 966 -1331 
L 506 -1331 
L 506 -850 
L 844 -850 
Q 1081 -850 1212 -737 
Q 1344 -625 1503 -206 
L 1606 56 
L 191 3500 
L 800 3500 
L 1894 763 
L 2988 3500 
L 3597 3500 
L 2059 -325 
z
" transform="scale(0.015625)"/>
      <path id="DejaVuSans-44" d="M 1259 4147 
L 1259 519 
L 2022 519 
Q 2988 519 3436 956 
Q 3884 1394 3884 2338 
Q 3884 3275 3436 3711 
Q 2988 4147 2022 4147 
L 1259 4147 
z
M 628 4666 
L 1925 4666 
Q 3281 4666 3915 4102 
Q 4550 3538 4550 2338 
Q 4550 1131 3912 565 
Q 3275 0 1925 0 
L 628 0 
L 628 4666 
z
" transform="scale(0.015625)"/>
      <path id="DejaVuSans-66" d="M 2375 4863 
L 2375 4384 
L 1825 4384 
Q 1516 4384 1395 4259 
Q 1275 4134 1275 3809 
L 1275 3500 
L 2222 3500 
L 2222 3053 
L 1275 3053 
L 1275 0 
L 697 0 
L 697 3053 
L 147 3053 
L 147 3500 
L 697 3500 
L 697 3744 
Q 697 4328 969 4595 
Q 1241 4863 1831 4863 
L 2375 4863 
z
" transform="scale(0.015625)"/>
      <path id="DejaVuSans-63" d="M 3122 3366 
L 3122 2828 
Q 2878 2963 2633 3030 
Q 2388 3097 2138 3097 
Q 1578 3097 1268 2742 
Q 959 2388 959 1747 
Q 959 1106 1268 751 
Q 1578 397 2138 397 
Q 2388 397 2633 464 
Q 2878 531 3122 666 
L 3122 134 
Q 2881 22 2623 -34 
Q 2366 -91 2075 -91 
Q 1284 -91 818 406 
Q 353 903 353 1747 
Q 353 2603 823 3093 
Q 1294 3584 2113 3584 
Q 2378 3584 2631 3529 
Q 2884 3475 3122 3366 
z
" transform="scale(0.015625)"/>
      <path id="DejaVuSans-28" d="M 1984 4856 
Q 1566 4138 1362 3434 
Q 1159 2731 1159 2009 
Q 1159 1288 1364 580 
Q 1569 -128 1984 -844 
L 1484 -844 
Q 1016 -109 783 600 
Q 550 1309 550 2009 
Q 550 2706 781 3412 
Q 1013 4119 1484 4856 
L 1984 4856 
z
" transform="scale(0.015625)"/>
      <path id="DejaVuSans-29" d="M 513 4856 
L 1013 4856 
Q 1481 4119 1714 3412 
Q 1947 2706 1947 2009 
Q 1947 1309 1714 600 
Q 1481 -109 1013 -844 
L 513 -844 
Q 928 -128 1133 580 
Q 1338 1288 1338 2009 
Q 1338 2731 1133 3434 
Q 928 4138 513 4856 
z
" transform="scale(0.015625)"/>
     </defs>
     <use xlink:href="#DejaVuSans-49"/>
     <use xlink:href="#DejaVuSans-6e" transform="translate(29.492188 0)"/>
     <use xlink:href="#DejaVuSans-73" transform="translate(92.871094 0)"/>
     <use xlink:href="#DejaVuSans-61" transform="translate(144.970703 0)"/>
     <use xlink:href="#DejaVuSans-6e" transform="translate(206.25 0)"/>
     <use xlink:href="#DejaVuSans-65" transform="translate(269.628906 0)"/>
     <use xlink:href="#DejaVuSans-41" transform="translate(331.152344 0)"/>
     <use xlink:href="#DejaVuSans-72" transform="translate(399.560547 0)"/>
     <use xlink:href="#DejaVuSans-72" transform="translate(438.923828 0)"/>
     <use xlink:href="#DejaVuSans-6f" transform="translate(477.787109 0)"/>
     <use xlink:href="#DejaVuSans-67" transform="translate(538.96875 0)"/>
     <use xlink:href="#DejaVuSans-61" transform="translate(602.445312 0)"/>
     <use xlink:href="#DejaVuSans-6e" transform="translate(663.724609 0)"/>
     <use xlink:href="#DejaVuSans-74" transform="translate(727.103516 0)"/>
     <use xlink:href="#DejaVuSans-20" transform="translate(766.3125 0)"/>
     <use xlink:href="#DejaVuSans-2d" transform="translate(798.099609 0)"/>
     <use xlink:href="#DejaVuSans-20" transform="translate(834.183594 0)"/>
     <use xlink:href="#DejaVuSans-43" transform="translate(865.970703 0)"/>
     <use xlink:href="#DejaVuSans-75" transform="translate(935.794922 0)"/>
     <use xlink:href="#DejaVuSans-6d" transform="translate(999.173828 0)"/>
     <use xlink:href="#DejaVuSans-75" transform="translate(1096.585938 0)"/>
     <use xlink:href="#DejaVuSans-6c" transform="translate(1159.964844 0)"/>
     <use xlink:href="#DejaVuSans-61" transform="translate(1187.748047 0)"/>
     <use xlink:href="#DejaVuSans-74" transform="translate(1249.027344 0)"/>
     <use xlink:href="#DejaVuSans-69" transform="translate(1288.236328 0)"/>
     <use xlink:href="#DejaVuSans-76" transform="translate(1316.019531 0)"/>
     <use xlink:href="#DejaVuSans-65" transform="translate(1375.199219 0)"/>
     <use xlink:href="#DejaVuSans-20" transform="translate(1436.722656 0)"/>
     <use xlink:href="#DejaVuSans-53" transform="translate(1468.509766 0)"/>
     <use xlink:href="#DejaVuSans-6f" transform="translate(1531.986328 0)"/>
     <use xlink:href="#DejaVuSans-6c" transform="translate(1593.167969 0)"/>
     <use xlink:href="#DejaVuSans-76" transform="translate(1620.951172 0)"/>
     <use xlink:href="#DejaVuSans-65" transform="translate(1680.130859 0)"/>
     <use xlink:href="#DejaVuSans-64" transform="translate(1741.654297 0)"/>
     <use xlink:href="#DejaVuSans-20" transform="translate(1805.130859 0)"/>
     <use xlink:href="#DejaVuSans-50" transform="translate(1836.917969 0)"/>
     <use xlink:href="#DejaVuSans-72" transform="translate(1895.470703 0)"/>
     <use xlink:href="#DejaVuSans-6f" transform="translate(1934.333984 0)"/>
     <use xlink:href="#DejaVuSans-62" transform="translate(1995.515625 0)"/>
     <use xlink:href="#DejaVuSans-6c" transform="translate(2058.992188 0)"/>
     <use xlink:href="#DejaVuSans-65" transform="translate(2086.775391 0)"/>
     <use xlink:href="#DejaVuSans-6d" transform="translate(2148.298828 0)"/>
     <use xlink:href="#DejaVuSans-73" transform="translate(2245.710938 0)"/>
     <use xlink:href="#DejaVuSans-20" transform="translate(2297.810547 0)"/>
     <use xlink:href="#DejaVuSans-62" transform="translate(2329.597656 0)"/>
     <use xlink:href="#DejaVuSans-79" transform="translate(2393.074219 0)"/>
     <use xlink:href="#DejaVuSans-20" transform="translate(2452.253906 0)"/>
     <use xlink:href="#DejaVuSans-44" transform="translate(2484.041016 0)"/>
     <use xlink:href="#DejaVuSans-69" transform="translate(2561.042969 0)"/>
     <use xlink:href="#DejaVuSans-66" transform="translate(2588.826172 0)"/>
     <use xlink:href="#DejaVuSans-66" transform="translate(2624.03125 0)"/>
     <use xlink:href="#DejaVuSans-69" transform="translate(2659.236328 0)"/>
     <use xlink:href="#DejaVuSans-63" transform="translate(2687.019531 0)"/>
     <use xlink:href="#DejaVuSans-75" transform="translate(2742 0)"/>
     <use xlink:href="#DejaVuSans-6c" transform="translate(2805.378906 0)"/>
     <use xlink:href="#DejaVuSans-74" transform="translate(2833.162109 0)"/>
     <use xlink:href="#DejaVuSans-79" transform="translate(2872.371094 0)"/>
     <use xlink:href="#DejaVuSans-20" transform="translate(2931.550781 0)"/>
     <use xlink:href="#DejaVuSans-28" transform="translate(2963.337891 0)"/>
     <use xlink:href="#DejaVuSans-4d" transform="translate(3002.351562 0)"/>
     <use xlink:href="#DejaVuSans-6f" transform="translate(3088.630859 0)"/>
     <use xlink:href="#DejaVuSans-6e" transform="translate(3149.8125 0)"/>
     <use xlink:href="#DejaVuSans-74" transform="translate(3213.191406 0)"/>
     <use xlink:href="#DejaVuSans-68" transform="translate(3252.400391 0)"/>
     <use xlink:href="#DejaVuSans-6c" transform="translate(3315.779297 0)"/>
     <use xlink:href="#DejaVuSans-79" transform="translate(3343.5625 0)"/>
     <use xlink:href="#DejaVuSans-29" transform="translate(3402.742188 0)"/>
    </g>
   </g>
   <g id="legend_1">
    <g id="patch_7">
     <path d="M 57.87 94.3125 
L 120.148125 94.3125 
Q 122.148125 94.3125 122.148125 92.3125 
L 122.148125 34.6 
Q 122.148125 32.6 120.148125 32.6 
L 57.87 32.6 
Q 55.87 32.6 55.87 34.6 
L 55.87 92.3125 
Q 55.87 94.3125 57.87 94.3125 
z
" style="fill: #ffffff; opacity: 0.8; stroke: #cccccc; stroke-linejoin: miter"/>
    </g>
    <g id="text_19">
     <!-- Difficulty -->
     <g transform="translate(66.634062 44.198438) scale(0.1 -0.1)">
      <use xlink:href="#DejaVuSans-44"/>
      <use xlink:href="#DejaVuSans-69" transform="translate(77.001953 0)"/>
      <use xlink:href="#DejaVuSans-66" transform="translate(104.785156 0)"/>
      <use xlink:href="#DejaVuSans-66" transform="translate(139.990234 0)"/>
      <use xlink:href="#DejaVuSans-69" transform="translate(175.195312 0)"/>
      <use xlink:href="#DejaVuSans-63" transform="translate(202.978516 0)"/>
      <use xlink:href="#DejaVuSans-75" transform="translate(257.958984 0)"/>
      <use xlink:href="#DejaVuSans-6c" transform="translate(321.337891 0)"/>
      <use xlink:href="#DejaVuSans-74" transform="translate(349.121094 0)"/>
      <use xlink:href="#DejaVuSans-79" transform="translate(388.330078 0)"/>
     </g>
    </g>
    <g id="line2d_34">
     <path d="M 59.87 55.376563 
L 69.87 55.376563 
L 79.87 55.376563 
" style="fill: none; stroke: #cccccc; stroke-width: 2; stroke-linecap: square"/>
     <g>
      <use xlink:href="#mfe72551678" x="69.87" y="55.376563" style="fill: #cccccc; stroke: #cccccc"/>
     </g>
    </g>
    <g id="text_20">
     <!-- Grey -->
     <g transform="translate(87.87 58.876563) scale(0.1 -0.1)">
      <defs>
       <path id="DejaVuSans-47" d="M 3809 666 
L 3809 1919 
L 2778 1919 
L 2778 2438 
L 4434 2438 
L 4434 434 
Q 4069 175 3628 42 
Q 3188 -91 2688 -91 
Q 1594 -91 976 548 
Q 359 1188 359 2328 
Q 359 3472 976 4111 
Q 1594 4750 2688 4750 
Q 3144 4750 3555 4637 
Q 3966 4525 4313 4306 
L 4313 3634 
Q 3963 3931 3569 4081 
Q 3175 4231 2741 4231 
Q 1884 4231 1454 3753 
Q 1025 3275 1025 2328 
Q 1025 1384 1454 906 
Q 1884 428 2741 428 
Q 3075 428 3337 486 
Q 3600 544 3809 666 
z
" transform="scale(0.015625)"/>
      </defs>
      <use xlink:href="#DejaVuSans-47"/>
      <use xlink:href="#DejaVuSans-72" transform="translate(77.490234 0)"/>
      <use xlink:href="#DejaVuSans-65" transform="translate(116.353516 0)"/>
      <use xlink:href="#DejaVuSans-79" transform="translate(177.876953 0)"/>
     </g>
    </g>
    <g id="line2d_35">
     <path d="M 59.87 70.054688 
L 69.87 70.054688 
L 79.87 70.054688 
" style="fill: none; stroke: #77ff77; stroke-width: 2; stroke-linecap: square"/>
     <g>
      <use xlink:href="#m3644ee1903" x="69.87" y="70.054688" style="fill: #77ff77; stroke: #77ff77"/>
     </g>
    </g>
    <g id="text_21">
     <!-- Green -->
     <g transform="translate(87.87 73.554688) scale(0.1 -0.1)">
      <use xlink:href="#DejaVuSans-47"/>
      <use xlink:href="#DejaVuSans-72" transform="translate(77.490234 0)"/>
      <use xlink:href="#DejaVuSans-65" transform="translate(116.353516 0)"/>
      <use xlink:href="#DejaVuSans-65" transform="translate(177.876953 0)"/>
      <use xlink:href="#DejaVuSans-6e" transform="translate(239.400391 0)"/>
     </g>
    </g>
    <g id="line2d_36">
     <path d="M 59.87 84.732813 
L 69.87 84.732813 
L 79.87 84.732813 
" style="fill: none; stroke: #77ddff; stroke-width: 2; stroke-linecap: square"/>
     <g>
      <use xlink:href="#mb3e2e1e4fd" x="69.87" y="84.732813" style="fill: #77ddff; stroke: #77ddff"/>
     </g>
    </g>
    <g id="text_22">
     <!-- Cyan -->
     <g transform="translate(87.87 88.232813) scale(0.1 -0.1)">
      <use xlink:href="#DejaVuSans-43"/>
      <use xlink:href="#DejaVuSans-79" transform="translate(69.824219 0)"/>
      <use xlink:href="#DejaVuSans-61" transform="translate(129.003906 0)"/>
      <use xlink:href="#DejaVuSans-6e" transform="translate(190.283203 0)"/>
     </g>
    </g>
   </g>
  </g>
 </g>
 <defs>
  <clipPath id="p6c222f57c9">
   <rect x="50.87" y="27.6" width="946.33" height="408.118143"/>
  </clipPath>
 </defs>
</svg>
